<?xml version="1.0" encoding="UTF-8"?>
<svg width="640" height="400" viewBox="0 0 640 400" fill="none" xmlns="http://www.w3.org/2000/svg" role="img" aria-label="Illustration of secure login">
  <rect width="640" height="400" rx="16" fill="#0B1220"/>
  <g transform="translate(40,40)">
    <rect x="0" y="0" width="320" height="220" rx="12" fill="#0F172A"/>
    <rect x="20" y="28" width="280" height="18" rx="6" fill="#1E293B"/>
    <rect x="20" y="60" width="240" height="14" rx="6" fill="#17203A"/>
    <rect x="20" y="86" width="180" height="12" rx="6" fill="#17203A"/>
    <rect x="0" y="240" width="320" height="120" rx="12" fill="#081129"/>
    <g transform="translate(40,260)" fill="#2563EB">
      <rect x="0" y="0" width="220" height="12" rx="6"/>
      <rect x="0" y="26" width="160" height="12" rx="6"/>
    </g>
  </g>
  <g transform="translate(400,40)">
    <circle cx="80" cy="60" r="48" fill="#1D4ED8"/>
    <path d="M80 36c13 0 24 11 24 24s-11 24-24 24-24-11-24-24 11-24 24-24z" fill="#0B1220"/>
    <rect x="32" y="132" width="96" height="120" rx="10" fill="#0F172A"/>
    <rect x="44" y="156" width="72" height="12" rx="6" fill="#16325A"/>
    <rect x="44" y="180" width="48" height="12" rx="6" fill="#16325A"/>
  </g>
</svg>
